<mxfile host="app.diagrams.net" modified="2021-11-04T10:42:33.409Z" agent="5.0 (Macintosh; Intel Mac OS X 10_14_6) AppleWebKit/537.36 (KHTML, like Gecko) Chrome/95.0.4638.69 Safari/537.36" etag="ieWftft8KSuoalcbfg7o" version="15.6.6" type="github">
  <diagram id="qKRGt8TQBt2uqlpVq6g3" name="Page-1">
    <mxGraphModel dx="1186" dy="773" grid="1" gridSize="10" guides="1" tooltips="1" connect="1" arrows="1" fold="1" page="1" pageScale="1" pageWidth="827" pageHeight="1169" math="0" shadow="0">
      <root>
        <mxCell id="0" />
        <mxCell id="1" parent="0" />
        <mxCell id="MC8-AhKKOKp2TsqZbp03-180" value="" style="shape=cube;whiteSpace=wrap;html=1;boundedLbl=1;backgroundOutline=1;darkOpacity=0.05;darkOpacity2=0.1;size=20;rotation=90;fillColor=#1ba1e2;strokeColor=#006EAF;fontColor=#ffffff;" vertex="1" parent="1">
          <mxGeometry x="220" y="150.25" width="40" height="40" as="geometry" />
        </mxCell>
        <mxCell id="MC8-AhKKOKp2TsqZbp03-181" value="" style="shape=cube;whiteSpace=wrap;html=1;boundedLbl=1;backgroundOutline=1;darkOpacity=0.05;darkOpacity2=0.1;size=20;rotation=90;fillColor=#1ba1e2;strokeColor=#006EAF;fontColor=#ffffff;" vertex="1" parent="1">
          <mxGeometry x="240" y="150.25" width="40" height="40" as="geometry" />
        </mxCell>
        <mxCell id="MC8-AhKKOKp2TsqZbp03-182" value="" style="shape=cube;whiteSpace=wrap;html=1;boundedLbl=1;backgroundOutline=1;darkOpacity=0.05;darkOpacity2=0.1;size=20;rotation=90;fillColor=#1ba1e2;strokeColor=#006EAF;fontColor=#ffffff;" vertex="1" parent="1">
          <mxGeometry x="260" y="150.25" width="40" height="40" as="geometry" />
        </mxCell>
        <mxCell id="MC8-AhKKOKp2TsqZbp03-183" value="" style="shape=cube;whiteSpace=wrap;html=1;boundedLbl=1;backgroundOutline=1;darkOpacity=0.05;darkOpacity2=0.1;size=20;rotation=90;fillColor=#1ba1e2;strokeColor=#006EAF;fontColor=#ffffff;" vertex="1" parent="1">
          <mxGeometry x="280" y="150.25" width="40" height="40" as="geometry" />
        </mxCell>
        <mxCell id="MC8-AhKKOKp2TsqZbp03-184" value="" style="shape=cube;whiteSpace=wrap;html=1;boundedLbl=1;backgroundOutline=1;darkOpacity=0.05;darkOpacity2=0.1;size=20;rotation=90;fillColor=#1ba1e2;strokeColor=#006EAF;fontColor=#ffffff;" vertex="1" parent="1">
          <mxGeometry x="300" y="150.25" width="40" height="40" as="geometry" />
        </mxCell>
        <mxCell id="MC8-AhKKOKp2TsqZbp03-185" value="" style="shape=cube;whiteSpace=wrap;html=1;boundedLbl=1;backgroundOutline=1;darkOpacity=0.05;darkOpacity2=0.1;size=20;rotation=90;fillColor=#1ba1e2;strokeColor=#006EAF;fontColor=#ffffff;" vertex="1" parent="1">
          <mxGeometry x="219.5" y="130.25" width="40" height="40" as="geometry" />
        </mxCell>
        <mxCell id="MC8-AhKKOKp2TsqZbp03-186" value="" style="shape=cube;whiteSpace=wrap;html=1;boundedLbl=1;backgroundOutline=1;darkOpacity=0.05;darkOpacity2=0.1;size=20;rotation=90;fillColor=#1ba1e2;strokeColor=#006EAF;fontColor=#ffffff;" vertex="1" parent="1">
          <mxGeometry x="239.5" y="130.25" width="40" height="40" as="geometry" />
        </mxCell>
        <mxCell id="MC8-AhKKOKp2TsqZbp03-187" value="" style="shape=cube;whiteSpace=wrap;html=1;boundedLbl=1;backgroundOutline=1;darkOpacity=0.05;darkOpacity2=0.1;size=20;rotation=90;fillColor=#1ba1e2;strokeColor=#006EAF;fontColor=#ffffff;" vertex="1" parent="1">
          <mxGeometry x="259.5" y="130.25" width="40" height="40" as="geometry" />
        </mxCell>
        <mxCell id="MC8-AhKKOKp2TsqZbp03-188" value="" style="shape=cube;whiteSpace=wrap;html=1;boundedLbl=1;backgroundOutline=1;darkOpacity=0.05;darkOpacity2=0.1;size=20;rotation=90;fillColor=#1ba1e2;strokeColor=#006EAF;fontColor=#ffffff;" vertex="1" parent="1">
          <mxGeometry x="279.5" y="130.25" width="40" height="40" as="geometry" />
        </mxCell>
        <mxCell id="MC8-AhKKOKp2TsqZbp03-189" value="" style="shape=cube;whiteSpace=wrap;html=1;boundedLbl=1;backgroundOutline=1;darkOpacity=0.05;darkOpacity2=0.1;size=20;rotation=90;fillColor=#1ba1e2;strokeColor=#006EAF;fontColor=#ffffff;" vertex="1" parent="1">
          <mxGeometry x="299.5" y="130.25" width="40" height="40" as="geometry" />
        </mxCell>
        <mxCell id="MC8-AhKKOKp2TsqZbp03-190" value="" style="shape=cube;whiteSpace=wrap;html=1;boundedLbl=1;backgroundOutline=1;darkOpacity=0.05;darkOpacity2=0.1;size=20;rotation=90;fillColor=#1ba1e2;strokeColor=#006EAF;fontColor=#ffffff;" vertex="1" parent="1">
          <mxGeometry x="219.5" y="110.25" width="40" height="40" as="geometry" />
        </mxCell>
        <mxCell id="MC8-AhKKOKp2TsqZbp03-191" value="" style="shape=cube;whiteSpace=wrap;html=1;boundedLbl=1;backgroundOutline=1;darkOpacity=0.05;darkOpacity2=0.1;size=20;rotation=90;fillColor=#1ba1e2;strokeColor=#006EAF;fontColor=#ffffff;" vertex="1" parent="1">
          <mxGeometry x="239.5" y="110.25" width="40" height="40" as="geometry" />
        </mxCell>
        <mxCell id="MC8-AhKKOKp2TsqZbp03-192" value="" style="shape=cube;whiteSpace=wrap;html=1;boundedLbl=1;backgroundOutline=1;darkOpacity=0.05;darkOpacity2=0.1;size=20;rotation=90;fillColor=#1ba1e2;strokeColor=#006EAF;fontColor=#ffffff;" vertex="1" parent="1">
          <mxGeometry x="259.5" y="110.25" width="40" height="40" as="geometry" />
        </mxCell>
        <mxCell id="MC8-AhKKOKp2TsqZbp03-193" value="" style="shape=cube;whiteSpace=wrap;html=1;boundedLbl=1;backgroundOutline=1;darkOpacity=0.05;darkOpacity2=0.1;size=20;rotation=90;fillColor=#1ba1e2;strokeColor=#006EAF;fontColor=#ffffff;" vertex="1" parent="1">
          <mxGeometry x="279.5" y="110.25" width="40" height="40" as="geometry" />
        </mxCell>
        <mxCell id="MC8-AhKKOKp2TsqZbp03-194" value="" style="shape=cube;whiteSpace=wrap;html=1;boundedLbl=1;backgroundOutline=1;darkOpacity=0.05;darkOpacity2=0.1;size=20;rotation=90;fillColor=#1ba1e2;strokeColor=#006EAF;fontColor=#ffffff;" vertex="1" parent="1">
          <mxGeometry x="299.5" y="110.25" width="40" height="40" as="geometry" />
        </mxCell>
        <mxCell id="MC8-AhKKOKp2TsqZbp03-195" value="" style="shape=cube;whiteSpace=wrap;html=1;boundedLbl=1;backgroundOutline=1;darkOpacity=0.05;darkOpacity2=0.1;size=20;rotation=90;fillColor=#1ba1e2;strokeColor=#006EAF;fontColor=#ffffff;" vertex="1" parent="1">
          <mxGeometry x="220" y="91.25" width="40" height="40" as="geometry" />
        </mxCell>
        <mxCell id="MC8-AhKKOKp2TsqZbp03-196" value="&lt;font style=&quot;font-size: 18px&quot;&gt;&lt;b&gt;VMHA&lt;/b&gt;&lt;/font&gt;" style="text;html=1;align=center;verticalAlign=middle;resizable=0;points=[];autosize=1;strokeColor=none;fillColor=none;fontColor=default;" vertex="1" parent="1">
          <mxGeometry x="80" y="41.25" width="70" height="20" as="geometry" />
        </mxCell>
        <mxCell id="MC8-AhKKOKp2TsqZbp03-197" value="" style="shape=cube;whiteSpace=wrap;html=1;boundedLbl=1;backgroundOutline=1;darkOpacity=0.05;darkOpacity2=0.1;size=20;rotation=90;fillColor=#1ba1e2;strokeColor=#006EAF;fontColor=#ffffff;" vertex="1" parent="1">
          <mxGeometry x="240" y="91.25" width="40" height="40" as="geometry" />
        </mxCell>
        <mxCell id="MC8-AhKKOKp2TsqZbp03-198" value="" style="shape=cube;whiteSpace=wrap;html=1;boundedLbl=1;backgroundOutline=1;darkOpacity=0.05;darkOpacity2=0.1;size=20;rotation=90;fillColor=#1ba1e2;strokeColor=#006EAF;fontColor=#ffffff;" vertex="1" parent="1">
          <mxGeometry x="260" y="91.25" width="40" height="40" as="geometry" />
        </mxCell>
        <mxCell id="MC8-AhKKOKp2TsqZbp03-199" value="" style="shape=cube;whiteSpace=wrap;html=1;boundedLbl=1;backgroundOutline=1;darkOpacity=0.05;darkOpacity2=0.1;size=20;rotation=90;fillColor=#1ba1e2;strokeColor=#006EAF;fontColor=#ffffff;" vertex="1" parent="1">
          <mxGeometry x="280" y="91.25" width="40" height="40" as="geometry" />
        </mxCell>
        <mxCell id="MC8-AhKKOKp2TsqZbp03-200" value="" style="shape=cube;whiteSpace=wrap;html=1;boundedLbl=1;backgroundOutline=1;darkOpacity=0.05;darkOpacity2=0.1;size=20;rotation=90;fillColor=#1ba1e2;strokeColor=#006EAF;fontColor=#ffffff;" vertex="1" parent="1">
          <mxGeometry x="300" y="91.25" width="40" height="40" as="geometry" />
        </mxCell>
        <mxCell id="MC8-AhKKOKp2TsqZbp03-201" value="" style="shape=cube;whiteSpace=wrap;html=1;boundedLbl=1;backgroundOutline=1;darkOpacity=0.05;darkOpacity2=0.1;size=20;rotation=90;fillColor=#1ba1e2;strokeColor=#006EAF;fontColor=#ffffff;" vertex="1" parent="1">
          <mxGeometry x="201.5" y="170.25" width="40" height="40" as="geometry" />
        </mxCell>
        <mxCell id="MC8-AhKKOKp2TsqZbp03-202" value="" style="shape=cube;whiteSpace=wrap;html=1;boundedLbl=1;backgroundOutline=1;darkOpacity=0.05;darkOpacity2=0.1;size=20;rotation=90;fillColor=#1ba1e2;strokeColor=#006EAF;fontColor=#ffffff;" vertex="1" parent="1">
          <mxGeometry x="221.5" y="170.25" width="40" height="40" as="geometry" />
        </mxCell>
        <mxCell id="MC8-AhKKOKp2TsqZbp03-203" value="" style="shape=cube;whiteSpace=wrap;html=1;boundedLbl=1;backgroundOutline=1;darkOpacity=0.05;darkOpacity2=0.1;size=20;rotation=90;fillColor=#1ba1e2;strokeColor=#006EAF;fontColor=#ffffff;" vertex="1" parent="1">
          <mxGeometry x="241.5" y="170.25" width="40" height="40" as="geometry" />
        </mxCell>
        <mxCell id="MC8-AhKKOKp2TsqZbp03-204" value="" style="shape=cube;whiteSpace=wrap;html=1;boundedLbl=1;backgroundOutline=1;darkOpacity=0.05;darkOpacity2=0.1;size=20;rotation=90;fillColor=#1ba1e2;strokeColor=#006EAF;fontColor=#ffffff;" vertex="1" parent="1">
          <mxGeometry x="261.5" y="170.25" width="40" height="40" as="geometry" />
        </mxCell>
        <mxCell id="MC8-AhKKOKp2TsqZbp03-205" value="" style="shape=cube;whiteSpace=wrap;html=1;boundedLbl=1;backgroundOutline=1;darkOpacity=0.05;darkOpacity2=0.1;size=20;rotation=90;fillColor=#1ba1e2;strokeColor=#006EAF;fontColor=#ffffff;" vertex="1" parent="1">
          <mxGeometry x="281.5" y="170.25" width="40" height="40" as="geometry" />
        </mxCell>
        <mxCell id="MC8-AhKKOKp2TsqZbp03-206" value="" style="shape=cube;whiteSpace=wrap;html=1;boundedLbl=1;backgroundOutline=1;darkOpacity=0.05;darkOpacity2=0.1;size=20;rotation=90;fillColor=#1ba1e2;strokeColor=#006EAF;fontColor=#ffffff;" vertex="1" parent="1">
          <mxGeometry x="201" y="150.25" width="40" height="40" as="geometry" />
        </mxCell>
        <mxCell id="MC8-AhKKOKp2TsqZbp03-207" value="" style="shape=cube;whiteSpace=wrap;html=1;boundedLbl=1;backgroundOutline=1;darkOpacity=0.05;darkOpacity2=0.1;size=20;rotation=90;fillColor=#1ba1e2;strokeColor=#006EAF;fontColor=#ffffff;" vertex="1" parent="1">
          <mxGeometry x="221" y="150.25" width="40" height="40" as="geometry" />
        </mxCell>
        <mxCell id="MC8-AhKKOKp2TsqZbp03-208" value="" style="shape=cube;whiteSpace=wrap;html=1;boundedLbl=1;backgroundOutline=1;darkOpacity=0.05;darkOpacity2=0.1;size=20;rotation=90;fillColor=#1ba1e2;strokeColor=#006EAF;fontColor=#ffffff;" vertex="1" parent="1">
          <mxGeometry x="241" y="150.25" width="40" height="40" as="geometry" />
        </mxCell>
        <mxCell id="MC8-AhKKOKp2TsqZbp03-209" value="" style="shape=cube;whiteSpace=wrap;html=1;boundedLbl=1;backgroundOutline=1;darkOpacity=0.05;darkOpacity2=0.1;size=20;rotation=90;fillColor=#1ba1e2;strokeColor=#006EAF;fontColor=#ffffff;" vertex="1" parent="1">
          <mxGeometry x="261" y="150.25" width="40" height="40" as="geometry" />
        </mxCell>
        <mxCell id="MC8-AhKKOKp2TsqZbp03-210" value="" style="shape=cube;whiteSpace=wrap;html=1;boundedLbl=1;backgroundOutline=1;darkOpacity=0.05;darkOpacity2=0.1;size=20;rotation=90;fillColor=#1ba1e2;strokeColor=#006EAF;fontColor=#ffffff;" vertex="1" parent="1">
          <mxGeometry x="281" y="150.25" width="40" height="40" as="geometry" />
        </mxCell>
        <mxCell id="MC8-AhKKOKp2TsqZbp03-211" value="" style="shape=cube;whiteSpace=wrap;html=1;boundedLbl=1;backgroundOutline=1;darkOpacity=0.05;darkOpacity2=0.1;size=20;rotation=90;fillColor=#1ba1e2;strokeColor=#006EAF;fontColor=#ffffff;" vertex="1" parent="1">
          <mxGeometry x="201" y="130.25" width="40" height="40" as="geometry" />
        </mxCell>
        <mxCell id="MC8-AhKKOKp2TsqZbp03-212" value="" style="shape=cube;whiteSpace=wrap;html=1;boundedLbl=1;backgroundOutline=1;darkOpacity=0.05;darkOpacity2=0.1;size=20;rotation=90;fillColor=#1ba1e2;strokeColor=#006EAF;fontColor=#ffffff;" vertex="1" parent="1">
          <mxGeometry x="221" y="130.25" width="40" height="40" as="geometry" />
        </mxCell>
        <mxCell id="MC8-AhKKOKp2TsqZbp03-213" value="" style="shape=cube;whiteSpace=wrap;html=1;boundedLbl=1;backgroundOutline=1;darkOpacity=0.05;darkOpacity2=0.1;size=20;rotation=90;fillColor=#1ba1e2;strokeColor=#006EAF;fontColor=#ffffff;" vertex="1" parent="1">
          <mxGeometry x="241" y="130.25" width="40" height="40" as="geometry" />
        </mxCell>
        <mxCell id="MC8-AhKKOKp2TsqZbp03-214" value="" style="shape=cube;whiteSpace=wrap;html=1;boundedLbl=1;backgroundOutline=1;darkOpacity=0.05;darkOpacity2=0.1;size=20;rotation=90;fillColor=#1ba1e2;strokeColor=#006EAF;fontColor=#ffffff;" vertex="1" parent="1">
          <mxGeometry x="261" y="130.25" width="40" height="40" as="geometry" />
        </mxCell>
        <mxCell id="MC8-AhKKOKp2TsqZbp03-215" value="" style="shape=cube;whiteSpace=wrap;html=1;boundedLbl=1;backgroundOutline=1;darkOpacity=0.05;darkOpacity2=0.1;size=20;rotation=90;fillColor=#1ba1e2;strokeColor=#006EAF;fontColor=#ffffff;" vertex="1" parent="1">
          <mxGeometry x="281" y="130.25" width="40" height="40" as="geometry" />
        </mxCell>
        <mxCell id="MC8-AhKKOKp2TsqZbp03-216" value="" style="shape=cube;whiteSpace=wrap;html=1;boundedLbl=1;backgroundOutline=1;darkOpacity=0.05;darkOpacity2=0.1;size=20;rotation=90;fillColor=#1ba1e2;strokeColor=#006EAF;fontColor=#ffffff;" vertex="1" parent="1">
          <mxGeometry x="200.5" y="110.25" width="40" height="40" as="geometry" />
        </mxCell>
        <mxCell id="MC8-AhKKOKp2TsqZbp03-217" value="" style="shape=cube;whiteSpace=wrap;html=1;boundedLbl=1;backgroundOutline=1;darkOpacity=0.05;darkOpacity2=0.1;size=20;rotation=90;fillColor=#1ba1e2;strokeColor=#006EAF;fontColor=#ffffff;" vertex="1" parent="1">
          <mxGeometry x="220.5" y="110.25" width="40" height="40" as="geometry" />
        </mxCell>
        <mxCell id="MC8-AhKKOKp2TsqZbp03-218" value="" style="shape=cube;whiteSpace=wrap;html=1;boundedLbl=1;backgroundOutline=1;darkOpacity=0.05;darkOpacity2=0.1;size=20;rotation=90;fillColor=#1ba1e2;strokeColor=#006EAF;fontColor=#ffffff;" vertex="1" parent="1">
          <mxGeometry x="240.5" y="110.25" width="40" height="40" as="geometry" />
        </mxCell>
        <mxCell id="MC8-AhKKOKp2TsqZbp03-219" value="" style="shape=cube;whiteSpace=wrap;html=1;boundedLbl=1;backgroundOutline=1;darkOpacity=0.05;darkOpacity2=0.1;size=20;rotation=90;fillColor=#1ba1e2;strokeColor=#006EAF;fontColor=#ffffff;" vertex="1" parent="1">
          <mxGeometry x="260.5" y="110.25" width="40" height="40" as="geometry" />
        </mxCell>
        <mxCell id="MC8-AhKKOKp2TsqZbp03-220" value="" style="shape=cube;whiteSpace=wrap;html=1;boundedLbl=1;backgroundOutline=1;darkOpacity=0.05;darkOpacity2=0.1;size=20;rotation=90;fillColor=#1ba1e2;strokeColor=#006EAF;fontColor=#ffffff;" vertex="1" parent="1">
          <mxGeometry x="280.5" y="110.25" width="40" height="40" as="geometry" />
        </mxCell>
        <mxCell id="MC8-AhKKOKp2TsqZbp03-221" value="" style="endArrow=classic;startArrow=classic;html=1;rounded=0;fontSize=25;strokeColor=default;labelBackgroundColor=default;fontColor=default;fontStyle=1;strokeWidth=2;" edge="1" parent="1">
          <mxGeometry width="50" height="50" relative="1" as="geometry">
            <mxPoint x="555.6300000000001" y="131.25" as="sourcePoint" />
            <mxPoint x="595.6300000000001" y="91.25" as="targetPoint" />
          </mxGeometry>
        </mxCell>
        <mxCell id="MC8-AhKKOKp2TsqZbp03-222" value="" style="shape=cube;whiteSpace=wrap;html=1;boundedLbl=1;backgroundOutline=1;darkOpacity=0.05;darkOpacity2=0.1;size=20;rotation=90;fillColor=#1ba1e2;strokeColor=#006EAF;fontColor=#ffffff;" vertex="1" parent="1">
          <mxGeometry x="625.5" y="151.25" width="40" height="40" as="geometry" />
        </mxCell>
        <mxCell id="MC8-AhKKOKp2TsqZbp03-223" value="" style="shape=cube;whiteSpace=wrap;html=1;boundedLbl=1;backgroundOutline=1;darkOpacity=0.05;darkOpacity2=0.1;size=20;rotation=90;fillColor=#1ba1e2;strokeColor=#006EAF;fontColor=#ffffff;" vertex="1" parent="1">
          <mxGeometry x="645.5" y="151.25" width="40" height="40" as="geometry" />
        </mxCell>
        <mxCell id="MC8-AhKKOKp2TsqZbp03-224" value="" style="shape=cube;whiteSpace=wrap;html=1;boundedLbl=1;backgroundOutline=1;darkOpacity=0.05;darkOpacity2=0.1;size=20;rotation=90;fillColor=#1ba1e2;strokeColor=#006EAF;fontColor=#ffffff;" vertex="1" parent="1">
          <mxGeometry x="665.5" y="151.25" width="40" height="40" as="geometry" />
        </mxCell>
        <mxCell id="MC8-AhKKOKp2TsqZbp03-225" value="" style="shape=cube;whiteSpace=wrap;html=1;boundedLbl=1;backgroundOutline=1;darkOpacity=0.05;darkOpacity2=0.1;size=20;rotation=90;fillColor=#1ba1e2;strokeColor=#006EAF;fontColor=#ffffff;" vertex="1" parent="1">
          <mxGeometry x="685.5" y="151.25" width="40" height="40" as="geometry" />
        </mxCell>
        <mxCell id="MC8-AhKKOKp2TsqZbp03-226" value="" style="shape=cube;whiteSpace=wrap;html=1;boundedLbl=1;backgroundOutline=1;darkOpacity=0.05;darkOpacity2=0.1;size=20;rotation=90;fillColor=#1ba1e2;strokeColor=#006EAF;fontColor=#ffffff;" vertex="1" parent="1">
          <mxGeometry x="705.5" y="151.25" width="40" height="40" as="geometry" />
        </mxCell>
        <mxCell id="MC8-AhKKOKp2TsqZbp03-227" value="" style="shape=cube;whiteSpace=wrap;html=1;boundedLbl=1;backgroundOutline=1;darkOpacity=0.05;darkOpacity2=0.1;size=20;rotation=90;fillColor=#1ba1e2;strokeColor=#006EAF;fontColor=#ffffff;" vertex="1" parent="1">
          <mxGeometry x="625" y="131.25" width="40" height="40" as="geometry" />
        </mxCell>
        <mxCell id="MC8-AhKKOKp2TsqZbp03-228" value="" style="shape=cube;whiteSpace=wrap;html=1;boundedLbl=1;backgroundOutline=1;darkOpacity=0.05;darkOpacity2=0.1;size=20;rotation=90;fillColor=#1ba1e2;strokeColor=#006EAF;fontColor=#ffffff;" vertex="1" parent="1">
          <mxGeometry x="645" y="131.25" width="40" height="40" as="geometry" />
        </mxCell>
        <mxCell id="MC8-AhKKOKp2TsqZbp03-229" value="" style="shape=cube;whiteSpace=wrap;html=1;boundedLbl=1;backgroundOutline=1;darkOpacity=0.05;darkOpacity2=0.1;size=20;rotation=90;fillColor=#1ba1e2;strokeColor=#006EAF;fontColor=#ffffff;" vertex="1" parent="1">
          <mxGeometry x="665" y="131.25" width="40" height="40" as="geometry" />
        </mxCell>
        <mxCell id="MC8-AhKKOKp2TsqZbp03-230" value="" style="shape=cube;whiteSpace=wrap;html=1;boundedLbl=1;backgroundOutline=1;darkOpacity=0.05;darkOpacity2=0.1;size=20;rotation=90;fillColor=#1ba1e2;strokeColor=#006EAF;fontColor=#ffffff;" vertex="1" parent="1">
          <mxGeometry x="685" y="131.25" width="40" height="40" as="geometry" />
        </mxCell>
        <mxCell id="MC8-AhKKOKp2TsqZbp03-231" value="" style="shape=cube;whiteSpace=wrap;html=1;boundedLbl=1;backgroundOutline=1;darkOpacity=0.05;darkOpacity2=0.1;size=20;rotation=90;fillColor=#1ba1e2;strokeColor=#006EAF;fontColor=#ffffff;" vertex="1" parent="1">
          <mxGeometry x="705" y="131.25" width="40" height="40" as="geometry" />
        </mxCell>
        <mxCell id="MC8-AhKKOKp2TsqZbp03-232" value="" style="shape=cube;whiteSpace=wrap;html=1;boundedLbl=1;backgroundOutline=1;darkOpacity=0.05;darkOpacity2=0.1;size=20;rotation=90;fillColor=#1ba1e2;strokeColor=#006EAF;fontColor=#ffffff;" vertex="1" parent="1">
          <mxGeometry x="625" y="111.25" width="40" height="40" as="geometry" />
        </mxCell>
        <mxCell id="MC8-AhKKOKp2TsqZbp03-233" value="" style="shape=cube;whiteSpace=wrap;html=1;boundedLbl=1;backgroundOutline=1;darkOpacity=0.05;darkOpacity2=0.1;size=20;rotation=90;fillColor=#1ba1e2;strokeColor=#006EAF;fontColor=#ffffff;" vertex="1" parent="1">
          <mxGeometry x="645" y="111.25" width="40" height="40" as="geometry" />
        </mxCell>
        <mxCell id="MC8-AhKKOKp2TsqZbp03-234" value="" style="shape=cube;whiteSpace=wrap;html=1;boundedLbl=1;backgroundOutline=1;darkOpacity=0.05;darkOpacity2=0.1;size=20;rotation=90;fillColor=#1ba1e2;strokeColor=#006EAF;fontColor=#ffffff;" vertex="1" parent="1">
          <mxGeometry x="665" y="111.25" width="40" height="40" as="geometry" />
        </mxCell>
        <mxCell id="MC8-AhKKOKp2TsqZbp03-235" value="" style="shape=cube;whiteSpace=wrap;html=1;boundedLbl=1;backgroundOutline=1;darkOpacity=0.05;darkOpacity2=0.1;size=20;rotation=90;fillColor=#1ba1e2;strokeColor=#006EAF;fontColor=#ffffff;" vertex="1" parent="1">
          <mxGeometry x="685" y="111.25" width="40" height="40" as="geometry" />
        </mxCell>
        <mxCell id="MC8-AhKKOKp2TsqZbp03-236" value="" style="shape=cube;whiteSpace=wrap;html=1;boundedLbl=1;backgroundOutline=1;darkOpacity=0.05;darkOpacity2=0.1;size=20;rotation=90;fillColor=#1ba1e2;strokeColor=#006EAF;fontColor=#ffffff;" vertex="1" parent="1">
          <mxGeometry x="705" y="111.25" width="40" height="40" as="geometry" />
        </mxCell>
        <mxCell id="MC8-AhKKOKp2TsqZbp03-237" value="" style="shape=cube;whiteSpace=wrap;html=1;boundedLbl=1;backgroundOutline=1;darkOpacity=0.05;darkOpacity2=0.1;size=20;rotation=90;fillColor=#1ba1e2;strokeColor=#006EAF;fontColor=#ffffff;" vertex="1" parent="1">
          <mxGeometry x="625.5" y="92.25" width="40" height="40" as="geometry" />
        </mxCell>
        <mxCell id="MC8-AhKKOKp2TsqZbp03-238" value="" style="shape=cube;whiteSpace=wrap;html=1;boundedLbl=1;backgroundOutline=1;darkOpacity=0.05;darkOpacity2=0.1;size=20;rotation=90;fillColor=#1ba1e2;strokeColor=#006EAF;fontColor=#ffffff;" vertex="1" parent="1">
          <mxGeometry x="645.5" y="92.25" width="40" height="40" as="geometry" />
        </mxCell>
        <mxCell id="MC8-AhKKOKp2TsqZbp03-239" value="" style="shape=cube;whiteSpace=wrap;html=1;boundedLbl=1;backgroundOutline=1;darkOpacity=0.05;darkOpacity2=0.1;size=20;rotation=90;fillColor=#1ba1e2;strokeColor=#006EAF;fontColor=#ffffff;" vertex="1" parent="1">
          <mxGeometry x="665.5" y="92.25" width="40" height="40" as="geometry" />
        </mxCell>
        <mxCell id="MC8-AhKKOKp2TsqZbp03-240" value="" style="shape=cube;whiteSpace=wrap;html=1;boundedLbl=1;backgroundOutline=1;darkOpacity=0.05;darkOpacity2=0.1;size=20;rotation=90;fillColor=#1ba1e2;strokeColor=#006EAF;fontColor=#ffffff;" vertex="1" parent="1">
          <mxGeometry x="685.5" y="92.25" width="40" height="40" as="geometry" />
        </mxCell>
        <mxCell id="MC8-AhKKOKp2TsqZbp03-241" value="" style="shape=cube;whiteSpace=wrap;html=1;boundedLbl=1;backgroundOutline=1;darkOpacity=0.05;darkOpacity2=0.1;size=20;rotation=90;fillColor=#1ba1e2;strokeColor=#006EAF;fontColor=#ffffff;" vertex="1" parent="1">
          <mxGeometry x="705.5" y="92.25" width="40" height="40" as="geometry" />
        </mxCell>
        <mxCell id="MC8-AhKKOKp2TsqZbp03-242" value="" style="shape=cube;whiteSpace=wrap;html=1;boundedLbl=1;backgroundOutline=1;darkOpacity=0.05;darkOpacity2=0.1;size=20;rotation=90;fillColor=#1ba1e2;strokeColor=#006EAF;fontColor=#ffffff;" vertex="1" parent="1">
          <mxGeometry x="607" y="171.25" width="40" height="40" as="geometry" />
        </mxCell>
        <mxCell id="MC8-AhKKOKp2TsqZbp03-243" value="" style="shape=cube;whiteSpace=wrap;html=1;boundedLbl=1;backgroundOutline=1;darkOpacity=0.05;darkOpacity2=0.1;size=20;rotation=90;fillColor=#1ba1e2;strokeColor=#006EAF;fontColor=#ffffff;" vertex="1" parent="1">
          <mxGeometry x="627" y="171.25" width="40" height="40" as="geometry" />
        </mxCell>
        <mxCell id="MC8-AhKKOKp2TsqZbp03-244" value="" style="shape=cube;whiteSpace=wrap;html=1;boundedLbl=1;backgroundOutline=1;darkOpacity=0.05;darkOpacity2=0.1;size=20;rotation=90;fillColor=#1ba1e2;strokeColor=#006EAF;fontColor=#ffffff;" vertex="1" parent="1">
          <mxGeometry x="647" y="171.25" width="40" height="40" as="geometry" />
        </mxCell>
        <mxCell id="MC8-AhKKOKp2TsqZbp03-245" value="" style="shape=cube;whiteSpace=wrap;html=1;boundedLbl=1;backgroundOutline=1;darkOpacity=0.05;darkOpacity2=0.1;size=20;rotation=90;fillColor=#1ba1e2;strokeColor=#006EAF;fontColor=#ffffff;" vertex="1" parent="1">
          <mxGeometry x="667" y="171.25" width="40" height="40" as="geometry" />
        </mxCell>
        <mxCell id="MC8-AhKKOKp2TsqZbp03-246" value="" style="shape=cube;whiteSpace=wrap;html=1;boundedLbl=1;backgroundOutline=1;darkOpacity=0.05;darkOpacity2=0.1;size=20;rotation=90;fillColor=#1ba1e2;strokeColor=#006EAF;fontColor=#ffffff;" vertex="1" parent="1">
          <mxGeometry x="687" y="171.25" width="40" height="40" as="geometry" />
        </mxCell>
        <mxCell id="MC8-AhKKOKp2TsqZbp03-247" value="" style="shape=cube;whiteSpace=wrap;html=1;boundedLbl=1;backgroundOutline=1;darkOpacity=0.05;darkOpacity2=0.1;size=20;rotation=90;fillColor=#1ba1e2;strokeColor=#006EAF;fontColor=#ffffff;" vertex="1" parent="1">
          <mxGeometry x="606.5" y="151.25" width="40" height="40" as="geometry" />
        </mxCell>
        <mxCell id="MC8-AhKKOKp2TsqZbp03-248" value="" style="shape=cube;whiteSpace=wrap;html=1;boundedLbl=1;backgroundOutline=1;darkOpacity=0.05;darkOpacity2=0.1;size=20;rotation=90;fillColor=#1ba1e2;strokeColor=#006EAF;fontColor=#ffffff;" vertex="1" parent="1">
          <mxGeometry x="626.5" y="151.25" width="40" height="40" as="geometry" />
        </mxCell>
        <mxCell id="MC8-AhKKOKp2TsqZbp03-249" value="" style="shape=cube;whiteSpace=wrap;html=1;boundedLbl=1;backgroundOutline=1;darkOpacity=0.05;darkOpacity2=0.1;size=20;rotation=90;fillColor=#1ba1e2;strokeColor=#006EAF;fontColor=#ffffff;" vertex="1" parent="1">
          <mxGeometry x="646.5" y="151.25" width="40" height="40" as="geometry" />
        </mxCell>
        <mxCell id="MC8-AhKKOKp2TsqZbp03-250" value="" style="shape=cube;whiteSpace=wrap;html=1;boundedLbl=1;backgroundOutline=1;darkOpacity=0.05;darkOpacity2=0.1;size=20;rotation=90;fillColor=#1ba1e2;strokeColor=#006EAF;fontColor=#ffffff;" vertex="1" parent="1">
          <mxGeometry x="666.5" y="151.25" width="40" height="40" as="geometry" />
        </mxCell>
        <mxCell id="MC8-AhKKOKp2TsqZbp03-251" value="" style="shape=cube;whiteSpace=wrap;html=1;boundedLbl=1;backgroundOutline=1;darkOpacity=0.05;darkOpacity2=0.1;size=20;rotation=90;fillColor=#1ba1e2;strokeColor=#006EAF;fontColor=#ffffff;" vertex="1" parent="1">
          <mxGeometry x="686.5" y="151.25" width="40" height="40" as="geometry" />
        </mxCell>
        <mxCell id="MC8-AhKKOKp2TsqZbp03-252" value="" style="shape=cube;whiteSpace=wrap;html=1;boundedLbl=1;backgroundOutline=1;darkOpacity=0.05;darkOpacity2=0.1;size=20;rotation=90;fillColor=#1ba1e2;strokeColor=#006EAF;fontColor=#ffffff;" vertex="1" parent="1">
          <mxGeometry x="606.5" y="131.25" width="40" height="40" as="geometry" />
        </mxCell>
        <mxCell id="MC8-AhKKOKp2TsqZbp03-253" value="" style="shape=cube;whiteSpace=wrap;html=1;boundedLbl=1;backgroundOutline=1;darkOpacity=0.05;darkOpacity2=0.1;size=20;rotation=90;fillColor=#1ba1e2;strokeColor=#006EAF;fontColor=#ffffff;" vertex="1" parent="1">
          <mxGeometry x="626.5" y="131.25" width="40" height="40" as="geometry" />
        </mxCell>
        <mxCell id="MC8-AhKKOKp2TsqZbp03-254" value="" style="shape=cube;whiteSpace=wrap;html=1;boundedLbl=1;backgroundOutline=1;darkOpacity=0.05;darkOpacity2=0.1;size=20;rotation=90;fillColor=#1ba1e2;strokeColor=#006EAF;fontColor=#ffffff;" vertex="1" parent="1">
          <mxGeometry x="646.5" y="131.25" width="40" height="40" as="geometry" />
        </mxCell>
        <mxCell id="MC8-AhKKOKp2TsqZbp03-255" value="" style="shape=cube;whiteSpace=wrap;html=1;boundedLbl=1;backgroundOutline=1;darkOpacity=0.05;darkOpacity2=0.1;size=20;rotation=90;fillColor=#1ba1e2;strokeColor=#006EAF;fontColor=#ffffff;" vertex="1" parent="1">
          <mxGeometry x="666.5" y="131.25" width="40" height="40" as="geometry" />
        </mxCell>
        <mxCell id="MC8-AhKKOKp2TsqZbp03-256" value="" style="shape=cube;whiteSpace=wrap;html=1;boundedLbl=1;backgroundOutline=1;darkOpacity=0.05;darkOpacity2=0.1;size=20;rotation=90;fillColor=#1ba1e2;strokeColor=#006EAF;fontColor=#ffffff;" vertex="1" parent="1">
          <mxGeometry x="686.5" y="131.25" width="40" height="40" as="geometry" />
        </mxCell>
        <mxCell id="MC8-AhKKOKp2TsqZbp03-257" value="" style="shape=cube;whiteSpace=wrap;html=1;boundedLbl=1;backgroundOutline=1;darkOpacity=0.05;darkOpacity2=0.1;size=20;rotation=90;fillColor=#1ba1e2;strokeColor=#006EAF;fontColor=#ffffff;" vertex="1" parent="1">
          <mxGeometry x="606" y="111.25" width="40" height="40" as="geometry" />
        </mxCell>
        <mxCell id="MC8-AhKKOKp2TsqZbp03-258" value="" style="shape=cube;whiteSpace=wrap;html=1;boundedLbl=1;backgroundOutline=1;darkOpacity=0.05;darkOpacity2=0.1;size=20;rotation=90;fillColor=#1ba1e2;strokeColor=#006EAF;fontColor=#ffffff;" vertex="1" parent="1">
          <mxGeometry x="626" y="111.25" width="40" height="40" as="geometry" />
        </mxCell>
        <mxCell id="MC8-AhKKOKp2TsqZbp03-259" value="" style="shape=cube;whiteSpace=wrap;html=1;boundedLbl=1;backgroundOutline=1;darkOpacity=0.05;darkOpacity2=0.1;size=20;rotation=90;fillColor=#1ba1e2;strokeColor=#006EAF;fontColor=#ffffff;" vertex="1" parent="1">
          <mxGeometry x="646" y="111.25" width="40" height="40" as="geometry" />
        </mxCell>
        <mxCell id="MC8-AhKKOKp2TsqZbp03-260" value="" style="shape=cube;whiteSpace=wrap;html=1;boundedLbl=1;backgroundOutline=1;darkOpacity=0.05;darkOpacity2=0.1;size=20;rotation=90;fillColor=#1ba1e2;strokeColor=#006EAF;fontColor=#ffffff;" vertex="1" parent="1">
          <mxGeometry x="666" y="111.25" width="40" height="40" as="geometry" />
        </mxCell>
        <mxCell id="MC8-AhKKOKp2TsqZbp03-261" value="" style="shape=cube;whiteSpace=wrap;html=1;boundedLbl=1;backgroundOutline=1;darkOpacity=0.05;darkOpacity2=0.1;size=20;rotation=90;fillColor=#1ba1e2;strokeColor=#006EAF;fontColor=#ffffff;" vertex="1" parent="1">
          <mxGeometry x="686" y="111.25" width="40" height="40" as="geometry" />
        </mxCell>
        <mxCell id="MC8-AhKKOKp2TsqZbp03-262" value="" style="endArrow=classic;startArrow=classic;html=1;rounded=0;fontSize=18;strokeColor=default;labelBackgroundColor=default;fontColor=default;strokeWidth=2;" edge="1" parent="1">
          <mxGeometry width="50" height="50" relative="1" as="geometry">
            <mxPoint x="150" y="206.25" as="sourcePoint" />
            <mxPoint x="150.5" y="136.25" as="targetPoint" />
          </mxGeometry>
        </mxCell>
        <mxCell id="MC8-AhKKOKp2TsqZbp03-263" value="" style="endArrow=classic;startArrow=classic;html=1;rounded=0;fontSize=18;strokeColor=default;labelBackgroundColor=default;fontColor=default;fontStyle=1;strokeWidth=2;" edge="1" parent="1">
          <mxGeometry width="50" height="50" relative="1" as="geometry">
            <mxPoint x="650" y="40" as="sourcePoint" />
            <mxPoint x="747.0000000000005" y="40" as="targetPoint" />
          </mxGeometry>
        </mxCell>
        <mxCell id="MC8-AhKKOKp2TsqZbp03-264" value="&lt;font style=&quot;font-size: 18px&quot;&gt;&lt;b&gt;HMHA&lt;/b&gt;&lt;/font&gt;" style="text;html=1;align=center;verticalAlign=middle;resizable=0;points=[];autosize=1;strokeColor=none;fillColor=none;fontColor=default;" vertex="1" parent="1">
          <mxGeometry x="495.63" y="41.25" width="70" height="20" as="geometry" />
        </mxCell>
        <mxCell id="MC8-AhKKOKp2TsqZbp03-265" value="" style="shape=cube;whiteSpace=wrap;html=1;boundedLbl=1;backgroundOutline=1;darkOpacity=0.05;darkOpacity2=0.1;size=20;rotation=90;fillColor=#1ba1e2;strokeColor=#006EAF;fontColor=#ffffff;" vertex="1" parent="1">
          <mxGeometry x="275.13" y="400.25" width="40" height="40" as="geometry" />
        </mxCell>
        <mxCell id="MC8-AhKKOKp2TsqZbp03-266" value="" style="shape=cube;whiteSpace=wrap;html=1;boundedLbl=1;backgroundOutline=1;darkOpacity=0.05;darkOpacity2=0.1;size=20;rotation=90;fillColor=#1ba1e2;strokeColor=#006EAF;fontColor=#ffffff;" vertex="1" parent="1">
          <mxGeometry x="295.13" y="400.25" width="40" height="40" as="geometry" />
        </mxCell>
        <mxCell id="MC8-AhKKOKp2TsqZbp03-267" value="" style="shape=cube;whiteSpace=wrap;html=1;boundedLbl=1;backgroundOutline=1;darkOpacity=0.05;darkOpacity2=0.1;size=20;rotation=90;fillColor=#1ba1e2;strokeColor=#006EAF;fontColor=#ffffff;" vertex="1" parent="1">
          <mxGeometry x="315.13" y="400.25" width="40" height="40" as="geometry" />
        </mxCell>
        <mxCell id="MC8-AhKKOKp2TsqZbp03-268" value="" style="shape=cube;whiteSpace=wrap;html=1;boundedLbl=1;backgroundOutline=1;darkOpacity=0.05;darkOpacity2=0.1;size=20;rotation=90;fillColor=#1ba1e2;strokeColor=#006EAF;fontColor=#ffffff;" vertex="1" parent="1">
          <mxGeometry x="335.13" y="400.25" width="40" height="40" as="geometry" />
        </mxCell>
        <mxCell id="MC8-AhKKOKp2TsqZbp03-269" value="" style="shape=cube;whiteSpace=wrap;html=1;boundedLbl=1;backgroundOutline=1;darkOpacity=0.05;darkOpacity2=0.1;size=20;rotation=90;fillColor=#1ba1e2;strokeColor=#006EAF;fontColor=#ffffff;" vertex="1" parent="1">
          <mxGeometry x="355.13" y="400.25" width="40" height="40" as="geometry" />
        </mxCell>
        <mxCell id="MC8-AhKKOKp2TsqZbp03-270" value="" style="shape=cube;whiteSpace=wrap;html=1;boundedLbl=1;backgroundOutline=1;darkOpacity=0.05;darkOpacity2=0.1;size=20;rotation=90;fillColor=#1ba1e2;strokeColor=#006EAF;fontColor=#ffffff;" vertex="1" parent="1">
          <mxGeometry x="274.63" y="380.25" width="40" height="40" as="geometry" />
        </mxCell>
        <mxCell id="MC8-AhKKOKp2TsqZbp03-271" value="" style="shape=cube;whiteSpace=wrap;html=1;boundedLbl=1;backgroundOutline=1;darkOpacity=0.05;darkOpacity2=0.1;size=20;rotation=90;fillColor=#1ba1e2;strokeColor=#006EAF;fontColor=#ffffff;" vertex="1" parent="1">
          <mxGeometry x="294.63" y="380.25" width="40" height="40" as="geometry" />
        </mxCell>
        <mxCell id="MC8-AhKKOKp2TsqZbp03-272" value="" style="shape=cube;whiteSpace=wrap;html=1;boundedLbl=1;backgroundOutline=1;darkOpacity=0.05;darkOpacity2=0.1;size=20;rotation=90;fillColor=#1ba1e2;strokeColor=#006EAF;fontColor=#ffffff;" vertex="1" parent="1">
          <mxGeometry x="314.63" y="380.25" width="40" height="40" as="geometry" />
        </mxCell>
        <mxCell id="MC8-AhKKOKp2TsqZbp03-273" value="" style="shape=cube;whiteSpace=wrap;html=1;boundedLbl=1;backgroundOutline=1;darkOpacity=0.05;darkOpacity2=0.1;size=20;rotation=90;fillColor=#1ba1e2;strokeColor=#006EAF;fontColor=#ffffff;" vertex="1" parent="1">
          <mxGeometry x="334.63" y="380.25" width="40" height="40" as="geometry" />
        </mxCell>
        <mxCell id="MC8-AhKKOKp2TsqZbp03-274" value="" style="shape=cube;whiteSpace=wrap;html=1;boundedLbl=1;backgroundOutline=1;darkOpacity=0.05;darkOpacity2=0.1;size=20;rotation=90;fillColor=#1ba1e2;strokeColor=#006EAF;fontColor=#ffffff;" vertex="1" parent="1">
          <mxGeometry x="354.63" y="380.25" width="40" height="40" as="geometry" />
        </mxCell>
        <mxCell id="MC8-AhKKOKp2TsqZbp03-275" value="" style="shape=cube;whiteSpace=wrap;html=1;boundedLbl=1;backgroundOutline=1;darkOpacity=0.05;darkOpacity2=0.1;size=20;rotation=90;fillColor=#1ba1e2;strokeColor=#006EAF;fontColor=#ffffff;" vertex="1" parent="1">
          <mxGeometry x="274.63" y="360.25" width="40" height="40" as="geometry" />
        </mxCell>
        <mxCell id="MC8-AhKKOKp2TsqZbp03-276" value="" style="shape=cube;whiteSpace=wrap;html=1;boundedLbl=1;backgroundOutline=1;darkOpacity=0.05;darkOpacity2=0.1;size=20;rotation=90;fillColor=#1ba1e2;strokeColor=#006EAF;fontColor=#ffffff;" vertex="1" parent="1">
          <mxGeometry x="294.63" y="360.25" width="40" height="40" as="geometry" />
        </mxCell>
        <mxCell id="MC8-AhKKOKp2TsqZbp03-277" value="" style="shape=cube;whiteSpace=wrap;html=1;boundedLbl=1;backgroundOutline=1;darkOpacity=0.05;darkOpacity2=0.1;size=20;rotation=90;fillColor=#1ba1e2;strokeColor=#006EAF;fontColor=#ffffff;" vertex="1" parent="1">
          <mxGeometry x="314.63" y="360.25" width="40" height="40" as="geometry" />
        </mxCell>
        <mxCell id="MC8-AhKKOKp2TsqZbp03-278" value="" style="shape=cube;whiteSpace=wrap;html=1;boundedLbl=1;backgroundOutline=1;darkOpacity=0.05;darkOpacity2=0.1;size=20;rotation=90;fillColor=#1ba1e2;strokeColor=#006EAF;fontColor=#ffffff;" vertex="1" parent="1">
          <mxGeometry x="334.63" y="360.25" width="40" height="40" as="geometry" />
        </mxCell>
        <mxCell id="MC8-AhKKOKp2TsqZbp03-279" value="" style="shape=cube;whiteSpace=wrap;html=1;boundedLbl=1;backgroundOutline=1;darkOpacity=0.05;darkOpacity2=0.1;size=20;rotation=90;fillColor=#1ba1e2;strokeColor=#006EAF;fontColor=#ffffff;" vertex="1" parent="1">
          <mxGeometry x="354.63" y="360.25" width="40" height="40" as="geometry" />
        </mxCell>
        <mxCell id="MC8-AhKKOKp2TsqZbp03-280" value="" style="shape=cube;whiteSpace=wrap;html=1;boundedLbl=1;backgroundOutline=1;darkOpacity=0.05;darkOpacity2=0.1;size=20;rotation=90;fillColor=#1ba1e2;strokeColor=#006EAF;fontColor=#ffffff;" vertex="1" parent="1">
          <mxGeometry x="275.13" y="341.25" width="40" height="40" as="geometry" />
        </mxCell>
        <mxCell id="MC8-AhKKOKp2TsqZbp03-281" value="&lt;font size=&quot;1&quot;&gt;&lt;b style=&quot;font-size: 19px&quot;&gt;Modality Attention&lt;/b&gt;&lt;/font&gt;" style="text;html=1;align=center;verticalAlign=middle;resizable=0;points=[];autosize=1;strokeColor=none;fillColor=none;" vertex="1" parent="1">
          <mxGeometry x="80.13000000000001" y="321.25" width="180" height="20" as="geometry" />
        </mxCell>
        <mxCell id="MC8-AhKKOKp2TsqZbp03-282" value="" style="shape=cube;whiteSpace=wrap;html=1;boundedLbl=1;backgroundOutline=1;darkOpacity=0.05;darkOpacity2=0.1;size=20;rotation=90;fillColor=#1ba1e2;strokeColor=#006EAF;fontColor=#ffffff;" vertex="1" parent="1">
          <mxGeometry x="295.13" y="341.25" width="40" height="40" as="geometry" />
        </mxCell>
        <mxCell id="MC8-AhKKOKp2TsqZbp03-283" value="" style="shape=cube;whiteSpace=wrap;html=1;boundedLbl=1;backgroundOutline=1;darkOpacity=0.05;darkOpacity2=0.1;size=20;rotation=90;fillColor=#1ba1e2;strokeColor=#006EAF;fontColor=#ffffff;" vertex="1" parent="1">
          <mxGeometry x="315.13" y="341.25" width="40" height="40" as="geometry" />
        </mxCell>
        <mxCell id="MC8-AhKKOKp2TsqZbp03-284" value="" style="shape=cube;whiteSpace=wrap;html=1;boundedLbl=1;backgroundOutline=1;darkOpacity=0.05;darkOpacity2=0.1;size=20;rotation=90;fillColor=#1ba1e2;strokeColor=#006EAF;fontColor=#ffffff;" vertex="1" parent="1">
          <mxGeometry x="335.13" y="341.25" width="40" height="40" as="geometry" />
        </mxCell>
        <mxCell id="MC8-AhKKOKp2TsqZbp03-285" value="" style="shape=cube;whiteSpace=wrap;html=1;boundedLbl=1;backgroundOutline=1;darkOpacity=0.05;darkOpacity2=0.1;size=20;rotation=90;fillColor=#1ba1e2;strokeColor=#006EAF;fontColor=#ffffff;" vertex="1" parent="1">
          <mxGeometry x="355.13" y="341.25" width="40" height="40" as="geometry" />
        </mxCell>
        <mxCell id="MC8-AhKKOKp2TsqZbp03-286" value="" style="shape=cube;whiteSpace=wrap;html=1;boundedLbl=1;backgroundOutline=1;darkOpacity=0.05;darkOpacity2=0.1;size=20;rotation=90;fillColor=#1ba1e2;strokeColor=#006EAF;fontColor=#ffffff;" vertex="1" parent="1">
          <mxGeometry x="256.63" y="420.25" width="40" height="40" as="geometry" />
        </mxCell>
        <mxCell id="MC8-AhKKOKp2TsqZbp03-287" value="" style="shape=cube;whiteSpace=wrap;html=1;boundedLbl=1;backgroundOutline=1;darkOpacity=0.05;darkOpacity2=0.1;size=20;rotation=90;fillColor=#1ba1e2;strokeColor=#006EAF;fontColor=#ffffff;" vertex="1" parent="1">
          <mxGeometry x="276.63" y="420.25" width="40" height="40" as="geometry" />
        </mxCell>
        <mxCell id="MC8-AhKKOKp2TsqZbp03-288" value="" style="shape=cube;whiteSpace=wrap;html=1;boundedLbl=1;backgroundOutline=1;darkOpacity=0.05;darkOpacity2=0.1;size=20;rotation=90;fillColor=#1ba1e2;strokeColor=#006EAF;fontColor=#ffffff;" vertex="1" parent="1">
          <mxGeometry x="296.63" y="420.25" width="40" height="40" as="geometry" />
        </mxCell>
        <mxCell id="MC8-AhKKOKp2TsqZbp03-289" value="" style="shape=cube;whiteSpace=wrap;html=1;boundedLbl=1;backgroundOutline=1;darkOpacity=0.05;darkOpacity2=0.1;size=20;rotation=90;fillColor=#1ba1e2;strokeColor=#006EAF;fontColor=#ffffff;" vertex="1" parent="1">
          <mxGeometry x="316.63" y="420.25" width="40" height="40" as="geometry" />
        </mxCell>
        <mxCell id="MC8-AhKKOKp2TsqZbp03-290" value="" style="shape=cube;whiteSpace=wrap;html=1;boundedLbl=1;backgroundOutline=1;darkOpacity=0.05;darkOpacity2=0.1;size=20;rotation=90;fillColor=#1ba1e2;strokeColor=#006EAF;fontColor=#ffffff;" vertex="1" parent="1">
          <mxGeometry x="336.63" y="420.25" width="40" height="40" as="geometry" />
        </mxCell>
        <mxCell id="MC8-AhKKOKp2TsqZbp03-291" value="" style="shape=cube;whiteSpace=wrap;html=1;boundedLbl=1;backgroundOutline=1;darkOpacity=0.05;darkOpacity2=0.1;size=20;rotation=90;fillColor=#1ba1e2;strokeColor=#006EAF;fontColor=#ffffff;" vertex="1" parent="1">
          <mxGeometry x="256.13" y="400.25" width="40" height="40" as="geometry" />
        </mxCell>
        <mxCell id="MC8-AhKKOKp2TsqZbp03-292" value="" style="shape=cube;whiteSpace=wrap;html=1;boundedLbl=1;backgroundOutline=1;darkOpacity=0.05;darkOpacity2=0.1;size=20;rotation=90;fillColor=#1ba1e2;strokeColor=#006EAF;fontColor=#ffffff;" vertex="1" parent="1">
          <mxGeometry x="276.13" y="400.25" width="40" height="40" as="geometry" />
        </mxCell>
        <mxCell id="MC8-AhKKOKp2TsqZbp03-293" value="" style="shape=cube;whiteSpace=wrap;html=1;boundedLbl=1;backgroundOutline=1;darkOpacity=0.05;darkOpacity2=0.1;size=20;rotation=90;fillColor=#1ba1e2;strokeColor=#006EAF;fontColor=#ffffff;" vertex="1" parent="1">
          <mxGeometry x="296.13" y="400.25" width="40" height="40" as="geometry" />
        </mxCell>
        <mxCell id="MC8-AhKKOKp2TsqZbp03-294" value="" style="shape=cube;whiteSpace=wrap;html=1;boundedLbl=1;backgroundOutline=1;darkOpacity=0.05;darkOpacity2=0.1;size=20;rotation=90;fillColor=#1ba1e2;strokeColor=#006EAF;fontColor=#ffffff;" vertex="1" parent="1">
          <mxGeometry x="316.13" y="400.25" width="40" height="40" as="geometry" />
        </mxCell>
        <mxCell id="MC8-AhKKOKp2TsqZbp03-295" value="" style="shape=cube;whiteSpace=wrap;html=1;boundedLbl=1;backgroundOutline=1;darkOpacity=0.05;darkOpacity2=0.1;size=20;rotation=90;fillColor=#1ba1e2;strokeColor=#006EAF;fontColor=#ffffff;" vertex="1" parent="1">
          <mxGeometry x="336.13" y="400.25" width="40" height="40" as="geometry" />
        </mxCell>
        <mxCell id="MC8-AhKKOKp2TsqZbp03-296" value="" style="shape=cube;whiteSpace=wrap;html=1;boundedLbl=1;backgroundOutline=1;darkOpacity=0.05;darkOpacity2=0.1;size=20;rotation=90;fillColor=#1ba1e2;strokeColor=#006EAF;fontColor=#ffffff;" vertex="1" parent="1">
          <mxGeometry x="256.13" y="380.25" width="40" height="40" as="geometry" />
        </mxCell>
        <mxCell id="MC8-AhKKOKp2TsqZbp03-297" value="" style="shape=cube;whiteSpace=wrap;html=1;boundedLbl=1;backgroundOutline=1;darkOpacity=0.05;darkOpacity2=0.1;size=20;rotation=90;fillColor=#1ba1e2;strokeColor=#006EAF;fontColor=#ffffff;" vertex="1" parent="1">
          <mxGeometry x="276.13" y="380.25" width="40" height="40" as="geometry" />
        </mxCell>
        <mxCell id="MC8-AhKKOKp2TsqZbp03-298" value="" style="shape=cube;whiteSpace=wrap;html=1;boundedLbl=1;backgroundOutline=1;darkOpacity=0.05;darkOpacity2=0.1;size=20;rotation=90;fillColor=#1ba1e2;strokeColor=#006EAF;fontColor=#ffffff;" vertex="1" parent="1">
          <mxGeometry x="296.13" y="380.25" width="40" height="40" as="geometry" />
        </mxCell>
        <mxCell id="MC8-AhKKOKp2TsqZbp03-299" value="" style="shape=cube;whiteSpace=wrap;html=1;boundedLbl=1;backgroundOutline=1;darkOpacity=0.05;darkOpacity2=0.1;size=20;rotation=90;fillColor=#1ba1e2;strokeColor=#006EAF;fontColor=#ffffff;" vertex="1" parent="1">
          <mxGeometry x="316.13" y="380.25" width="40" height="40" as="geometry" />
        </mxCell>
        <mxCell id="MC8-AhKKOKp2TsqZbp03-300" value="" style="shape=cube;whiteSpace=wrap;html=1;boundedLbl=1;backgroundOutline=1;darkOpacity=0.05;darkOpacity2=0.1;size=20;rotation=90;fillColor=#1ba1e2;strokeColor=#006EAF;fontColor=#ffffff;" vertex="1" parent="1">
          <mxGeometry x="336.13" y="380.25" width="40" height="40" as="geometry" />
        </mxCell>
        <mxCell id="MC8-AhKKOKp2TsqZbp03-301" value="" style="shape=cube;whiteSpace=wrap;html=1;boundedLbl=1;backgroundOutline=1;darkOpacity=0.05;darkOpacity2=0.1;size=20;rotation=90;fillColor=#1ba1e2;strokeColor=#006EAF;fontColor=#ffffff;" vertex="1" parent="1">
          <mxGeometry x="255.63" y="360.25" width="40" height="40" as="geometry" />
        </mxCell>
        <mxCell id="MC8-AhKKOKp2TsqZbp03-302" value="" style="shape=cube;whiteSpace=wrap;html=1;boundedLbl=1;backgroundOutline=1;darkOpacity=0.05;darkOpacity2=0.1;size=20;rotation=90;fillColor=#1ba1e2;strokeColor=#006EAF;fontColor=#ffffff;" vertex="1" parent="1">
          <mxGeometry x="275.63" y="360.25" width="40" height="40" as="geometry" />
        </mxCell>
        <mxCell id="MC8-AhKKOKp2TsqZbp03-303" value="" style="shape=cube;whiteSpace=wrap;html=1;boundedLbl=1;backgroundOutline=1;darkOpacity=0.05;darkOpacity2=0.1;size=20;rotation=90;fillColor=#1ba1e2;strokeColor=#006EAF;fontColor=#ffffff;" vertex="1" parent="1">
          <mxGeometry x="295.63" y="360.25" width="40" height="40" as="geometry" />
        </mxCell>
        <mxCell id="MC8-AhKKOKp2TsqZbp03-304" value="" style="shape=cube;whiteSpace=wrap;html=1;boundedLbl=1;backgroundOutline=1;darkOpacity=0.05;darkOpacity2=0.1;size=20;rotation=90;fillColor=#1ba1e2;strokeColor=#006EAF;fontColor=#ffffff;" vertex="1" parent="1">
          <mxGeometry x="315.63" y="360.25" width="40" height="40" as="geometry" />
        </mxCell>
        <mxCell id="MC8-AhKKOKp2TsqZbp03-305" value="" style="shape=cube;whiteSpace=wrap;html=1;boundedLbl=1;backgroundOutline=1;darkOpacity=0.05;darkOpacity2=0.1;size=20;rotation=90;fillColor=#1ba1e2;strokeColor=#006EAF;fontColor=#ffffff;" vertex="1" parent="1">
          <mxGeometry x="335.63" y="360.25" width="40" height="40" as="geometry" />
        </mxCell>
        <mxCell id="MC8-AhKKOKp2TsqZbp03-306" value="" style="shape=cube;whiteSpace=wrap;html=1;boundedLbl=1;backgroundOutline=1;darkOpacity=0.05;darkOpacity2=0.1;size=20;rotation=90;fillColor=#1ba1e2;strokeColor=#006EAF;fontColor=#ffffff;" vertex="1" parent="1">
          <mxGeometry x="470.63" y="401.25" width="40" height="40" as="geometry" />
        </mxCell>
        <mxCell id="MC8-AhKKOKp2TsqZbp03-307" value="" style="shape=cube;whiteSpace=wrap;html=1;boundedLbl=1;backgroundOutline=1;darkOpacity=0.05;darkOpacity2=0.1;size=20;rotation=90;fillColor=#1ba1e2;strokeColor=#006EAF;fontColor=#ffffff;" vertex="1" parent="1">
          <mxGeometry x="490.63" y="401.25" width="40" height="40" as="geometry" />
        </mxCell>
        <mxCell id="MC8-AhKKOKp2TsqZbp03-308" value="" style="shape=cube;whiteSpace=wrap;html=1;boundedLbl=1;backgroundOutline=1;darkOpacity=0.05;darkOpacity2=0.1;size=20;rotation=90;fillColor=#1ba1e2;strokeColor=#006EAF;fontColor=#ffffff;" vertex="1" parent="1">
          <mxGeometry x="510.63" y="401.25" width="40" height="40" as="geometry" />
        </mxCell>
        <mxCell id="MC8-AhKKOKp2TsqZbp03-309" value="" style="shape=cube;whiteSpace=wrap;html=1;boundedLbl=1;backgroundOutline=1;darkOpacity=0.05;darkOpacity2=0.1;size=20;rotation=90;fillColor=#1ba1e2;strokeColor=#006EAF;fontColor=#ffffff;" vertex="1" parent="1">
          <mxGeometry x="530.63" y="401.25" width="40" height="40" as="geometry" />
        </mxCell>
        <mxCell id="MC8-AhKKOKp2TsqZbp03-310" value="" style="shape=cube;whiteSpace=wrap;html=1;boundedLbl=1;backgroundOutline=1;darkOpacity=0.05;darkOpacity2=0.1;size=20;rotation=90;fillColor=#1ba1e2;strokeColor=#006EAF;fontColor=#ffffff;" vertex="1" parent="1">
          <mxGeometry x="550.63" y="401.25" width="40" height="40" as="geometry" />
        </mxCell>
        <mxCell id="MC8-AhKKOKp2TsqZbp03-311" value="" style="shape=cube;whiteSpace=wrap;html=1;boundedLbl=1;backgroundOutline=1;darkOpacity=0.05;darkOpacity2=0.1;size=20;rotation=90;fillColor=#1ba1e2;strokeColor=#006EAF;fontColor=#ffffff;" vertex="1" parent="1">
          <mxGeometry x="470.13" y="381.25" width="40" height="40" as="geometry" />
        </mxCell>
        <mxCell id="MC8-AhKKOKp2TsqZbp03-312" value="" style="shape=cube;whiteSpace=wrap;html=1;boundedLbl=1;backgroundOutline=1;darkOpacity=0.05;darkOpacity2=0.1;size=20;rotation=90;fillColor=#1ba1e2;strokeColor=#006EAF;fontColor=#ffffff;" vertex="1" parent="1">
          <mxGeometry x="490.13" y="381.25" width="40" height="40" as="geometry" />
        </mxCell>
        <mxCell id="MC8-AhKKOKp2TsqZbp03-313" value="" style="shape=cube;whiteSpace=wrap;html=1;boundedLbl=1;backgroundOutline=1;darkOpacity=0.05;darkOpacity2=0.1;size=20;rotation=90;fillColor=#1ba1e2;strokeColor=#006EAF;fontColor=#ffffff;" vertex="1" parent="1">
          <mxGeometry x="510.13" y="381.25" width="40" height="40" as="geometry" />
        </mxCell>
        <mxCell id="MC8-AhKKOKp2TsqZbp03-314" value="" style="shape=cube;whiteSpace=wrap;html=1;boundedLbl=1;backgroundOutline=1;darkOpacity=0.05;darkOpacity2=0.1;size=20;rotation=90;fillColor=#1ba1e2;strokeColor=#006EAF;fontColor=#ffffff;" vertex="1" parent="1">
          <mxGeometry x="530.13" y="381.25" width="40" height="40" as="geometry" />
        </mxCell>
        <mxCell id="MC8-AhKKOKp2TsqZbp03-315" value="" style="shape=cube;whiteSpace=wrap;html=1;boundedLbl=1;backgroundOutline=1;darkOpacity=0.05;darkOpacity2=0.1;size=20;rotation=90;fillColor=#1ba1e2;strokeColor=#006EAF;fontColor=#ffffff;" vertex="1" parent="1">
          <mxGeometry x="550.13" y="381.25" width="40" height="40" as="geometry" />
        </mxCell>
        <mxCell id="MC8-AhKKOKp2TsqZbp03-316" value="" style="shape=cube;whiteSpace=wrap;html=1;boundedLbl=1;backgroundOutline=1;darkOpacity=0.05;darkOpacity2=0.1;size=20;rotation=90;fillColor=#1ba1e2;strokeColor=#006EAF;fontColor=#ffffff;" vertex="1" parent="1">
          <mxGeometry x="470.13" y="361.25" width="40" height="40" as="geometry" />
        </mxCell>
        <mxCell id="MC8-AhKKOKp2TsqZbp03-317" value="" style="shape=cube;whiteSpace=wrap;html=1;boundedLbl=1;backgroundOutline=1;darkOpacity=0.05;darkOpacity2=0.1;size=20;rotation=90;fillColor=#1ba1e2;strokeColor=#006EAF;fontColor=#ffffff;" vertex="1" parent="1">
          <mxGeometry x="490.13" y="361.25" width="40" height="40" as="geometry" />
        </mxCell>
        <mxCell id="MC8-AhKKOKp2TsqZbp03-318" value="" style="shape=cube;whiteSpace=wrap;html=1;boundedLbl=1;backgroundOutline=1;darkOpacity=0.05;darkOpacity2=0.1;size=20;rotation=90;fillColor=#1ba1e2;strokeColor=#006EAF;fontColor=#ffffff;" vertex="1" parent="1">
          <mxGeometry x="510.13" y="361.25" width="40" height="40" as="geometry" />
        </mxCell>
        <mxCell id="MC8-AhKKOKp2TsqZbp03-319" value="" style="shape=cube;whiteSpace=wrap;html=1;boundedLbl=1;backgroundOutline=1;darkOpacity=0.05;darkOpacity2=0.1;size=20;rotation=90;fillColor=#1ba1e2;strokeColor=#006EAF;fontColor=#ffffff;" vertex="1" parent="1">
          <mxGeometry x="530.13" y="361.25" width="40" height="40" as="geometry" />
        </mxCell>
        <mxCell id="MC8-AhKKOKp2TsqZbp03-320" value="" style="shape=cube;whiteSpace=wrap;html=1;boundedLbl=1;backgroundOutline=1;darkOpacity=0.05;darkOpacity2=0.1;size=20;rotation=90;fillColor=#1ba1e2;strokeColor=#006EAF;fontColor=#ffffff;" vertex="1" parent="1">
          <mxGeometry x="550.13" y="361.25" width="40" height="40" as="geometry" />
        </mxCell>
        <mxCell id="MC8-AhKKOKp2TsqZbp03-321" value="" style="shape=cube;whiteSpace=wrap;html=1;boundedLbl=1;backgroundOutline=1;darkOpacity=0.05;darkOpacity2=0.1;size=20;rotation=90;fillColor=#1ba1e2;strokeColor=#006EAF;fontColor=#ffffff;" vertex="1" parent="1">
          <mxGeometry x="470.63" y="342.25" width="40" height="40" as="geometry" />
        </mxCell>
        <mxCell id="MC8-AhKKOKp2TsqZbp03-322" value="" style="shape=cube;whiteSpace=wrap;html=1;boundedLbl=1;backgroundOutline=1;darkOpacity=0.05;darkOpacity2=0.1;size=20;rotation=90;fillColor=#1ba1e2;strokeColor=#006EAF;fontColor=#ffffff;" vertex="1" parent="1">
          <mxGeometry x="490.63" y="342.25" width="40" height="40" as="geometry" />
        </mxCell>
        <mxCell id="MC8-AhKKOKp2TsqZbp03-323" value="" style="shape=cube;whiteSpace=wrap;html=1;boundedLbl=1;backgroundOutline=1;darkOpacity=0.05;darkOpacity2=0.1;size=20;rotation=90;fillColor=#1ba1e2;strokeColor=#006EAF;fontColor=#ffffff;" vertex="1" parent="1">
          <mxGeometry x="510.63" y="342.25" width="40" height="40" as="geometry" />
        </mxCell>
        <mxCell id="MC8-AhKKOKp2TsqZbp03-324" value="" style="shape=cube;whiteSpace=wrap;html=1;boundedLbl=1;backgroundOutline=1;darkOpacity=0.05;darkOpacity2=0.1;size=20;rotation=90;fillColor=#1ba1e2;strokeColor=#006EAF;fontColor=#ffffff;" vertex="1" parent="1">
          <mxGeometry x="530.63" y="342.25" width="40" height="40" as="geometry" />
        </mxCell>
        <mxCell id="MC8-AhKKOKp2TsqZbp03-325" value="" style="shape=cube;whiteSpace=wrap;html=1;boundedLbl=1;backgroundOutline=1;darkOpacity=0.05;darkOpacity2=0.1;size=20;rotation=90;fillColor=#1ba1e2;strokeColor=#006EAF;fontColor=#ffffff;" vertex="1" parent="1">
          <mxGeometry x="550.63" y="342.25" width="40" height="40" as="geometry" />
        </mxCell>
        <mxCell id="MC8-AhKKOKp2TsqZbp03-326" value="" style="shape=cube;whiteSpace=wrap;html=1;boundedLbl=1;backgroundOutline=1;darkOpacity=0.05;darkOpacity2=0.1;size=20;rotation=90;fillColor=#1ba1e2;strokeColor=#006EAF;fontColor=#ffffff;" vertex="1" parent="1">
          <mxGeometry x="452.13" y="421.25" width="40" height="40" as="geometry" />
        </mxCell>
        <mxCell id="MC8-AhKKOKp2TsqZbp03-327" value="" style="shape=cube;whiteSpace=wrap;html=1;boundedLbl=1;backgroundOutline=1;darkOpacity=0.05;darkOpacity2=0.1;size=20;rotation=90;fillColor=#1ba1e2;strokeColor=#006EAF;fontColor=#ffffff;" vertex="1" parent="1">
          <mxGeometry x="472.13" y="421.25" width="40" height="40" as="geometry" />
        </mxCell>
        <mxCell id="MC8-AhKKOKp2TsqZbp03-328" value="" style="shape=cube;whiteSpace=wrap;html=1;boundedLbl=1;backgroundOutline=1;darkOpacity=0.05;darkOpacity2=0.1;size=20;rotation=90;fillColor=#1ba1e2;strokeColor=#006EAF;fontColor=#ffffff;" vertex="1" parent="1">
          <mxGeometry x="492.13" y="421.25" width="40" height="40" as="geometry" />
        </mxCell>
        <mxCell id="MC8-AhKKOKp2TsqZbp03-329" value="" style="shape=cube;whiteSpace=wrap;html=1;boundedLbl=1;backgroundOutline=1;darkOpacity=0.05;darkOpacity2=0.1;size=20;rotation=90;fillColor=#1ba1e2;strokeColor=#006EAF;fontColor=#ffffff;" vertex="1" parent="1">
          <mxGeometry x="512.13" y="421.25" width="40" height="40" as="geometry" />
        </mxCell>
        <mxCell id="MC8-AhKKOKp2TsqZbp03-330" value="" style="shape=cube;whiteSpace=wrap;html=1;boundedLbl=1;backgroundOutline=1;darkOpacity=0.05;darkOpacity2=0.1;size=20;rotation=90;fillColor=#1ba1e2;strokeColor=#006EAF;fontColor=#ffffff;" vertex="1" parent="1">
          <mxGeometry x="532.13" y="421.25" width="40" height="40" as="geometry" />
        </mxCell>
        <mxCell id="MC8-AhKKOKp2TsqZbp03-331" value="" style="shape=cube;whiteSpace=wrap;html=1;boundedLbl=1;backgroundOutline=1;darkOpacity=0.05;darkOpacity2=0.1;size=20;rotation=90;fillColor=#1ba1e2;strokeColor=#006EAF;fontColor=#ffffff;" vertex="1" parent="1">
          <mxGeometry x="451.63" y="401.25" width="40" height="40" as="geometry" />
        </mxCell>
        <mxCell id="MC8-AhKKOKp2TsqZbp03-332" value="" style="shape=cube;whiteSpace=wrap;html=1;boundedLbl=1;backgroundOutline=1;darkOpacity=0.05;darkOpacity2=0.1;size=20;rotation=90;fillColor=#1ba1e2;strokeColor=#006EAF;fontColor=#ffffff;" vertex="1" parent="1">
          <mxGeometry x="471.63" y="401.25" width="40" height="40" as="geometry" />
        </mxCell>
        <mxCell id="MC8-AhKKOKp2TsqZbp03-333" value="" style="shape=cube;whiteSpace=wrap;html=1;boundedLbl=1;backgroundOutline=1;darkOpacity=0.05;darkOpacity2=0.1;size=20;rotation=90;fillColor=#1ba1e2;strokeColor=#006EAF;fontColor=#ffffff;" vertex="1" parent="1">
          <mxGeometry x="491.63" y="401.25" width="40" height="40" as="geometry" />
        </mxCell>
        <mxCell id="MC8-AhKKOKp2TsqZbp03-334" value="" style="shape=cube;whiteSpace=wrap;html=1;boundedLbl=1;backgroundOutline=1;darkOpacity=0.05;darkOpacity2=0.1;size=20;rotation=90;fillColor=#1ba1e2;strokeColor=#006EAF;fontColor=#ffffff;" vertex="1" parent="1">
          <mxGeometry x="511.63" y="401.25" width="40" height="40" as="geometry" />
        </mxCell>
        <mxCell id="MC8-AhKKOKp2TsqZbp03-335" value="" style="shape=cube;whiteSpace=wrap;html=1;boundedLbl=1;backgroundOutline=1;darkOpacity=0.05;darkOpacity2=0.1;size=20;rotation=90;fillColor=#1ba1e2;strokeColor=#006EAF;fontColor=#ffffff;" vertex="1" parent="1">
          <mxGeometry x="531.63" y="401.25" width="40" height="40" as="geometry" />
        </mxCell>
        <mxCell id="MC8-AhKKOKp2TsqZbp03-336" value="" style="shape=cube;whiteSpace=wrap;html=1;boundedLbl=1;backgroundOutline=1;darkOpacity=0.05;darkOpacity2=0.1;size=20;rotation=90;fillColor=#1ba1e2;strokeColor=#006EAF;fontColor=#ffffff;" vertex="1" parent="1">
          <mxGeometry x="451.63" y="381.25" width="40" height="40" as="geometry" />
        </mxCell>
        <mxCell id="MC8-AhKKOKp2TsqZbp03-337" value="" style="shape=cube;whiteSpace=wrap;html=1;boundedLbl=1;backgroundOutline=1;darkOpacity=0.05;darkOpacity2=0.1;size=20;rotation=90;fillColor=#1ba1e2;strokeColor=#006EAF;fontColor=#ffffff;" vertex="1" parent="1">
          <mxGeometry x="471.63" y="381.25" width="40" height="40" as="geometry" />
        </mxCell>
        <mxCell id="MC8-AhKKOKp2TsqZbp03-338" value="" style="shape=cube;whiteSpace=wrap;html=1;boundedLbl=1;backgroundOutline=1;darkOpacity=0.05;darkOpacity2=0.1;size=20;rotation=90;fillColor=#1ba1e2;strokeColor=#006EAF;fontColor=#ffffff;" vertex="1" parent="1">
          <mxGeometry x="491.63" y="381.25" width="40" height="40" as="geometry" />
        </mxCell>
        <mxCell id="MC8-AhKKOKp2TsqZbp03-339" value="" style="shape=cube;whiteSpace=wrap;html=1;boundedLbl=1;backgroundOutline=1;darkOpacity=0.05;darkOpacity2=0.1;size=20;rotation=90;fillColor=#1ba1e2;strokeColor=#006EAF;fontColor=#ffffff;" vertex="1" parent="1">
          <mxGeometry x="511.63" y="381.25" width="40" height="40" as="geometry" />
        </mxCell>
        <mxCell id="MC8-AhKKOKp2TsqZbp03-340" value="" style="shape=cube;whiteSpace=wrap;html=1;boundedLbl=1;backgroundOutline=1;darkOpacity=0.05;darkOpacity2=0.1;size=20;rotation=90;fillColor=#1ba1e2;strokeColor=#006EAF;fontColor=#ffffff;" vertex="1" parent="1">
          <mxGeometry x="531.63" y="381.25" width="40" height="40" as="geometry" />
        </mxCell>
        <mxCell id="MC8-AhKKOKp2TsqZbp03-341" value="" style="shape=cube;whiteSpace=wrap;html=1;boundedLbl=1;backgroundOutline=1;darkOpacity=0.05;darkOpacity2=0.1;size=20;rotation=90;fillColor=#1ba1e2;strokeColor=#006EAF;fontColor=#ffffff;" vertex="1" parent="1">
          <mxGeometry x="451.13" y="361.25" width="40" height="40" as="geometry" />
        </mxCell>
        <mxCell id="MC8-AhKKOKp2TsqZbp03-342" value="" style="shape=cube;whiteSpace=wrap;html=1;boundedLbl=1;backgroundOutline=1;darkOpacity=0.05;darkOpacity2=0.1;size=20;rotation=90;fillColor=#1ba1e2;strokeColor=#006EAF;fontColor=#ffffff;" vertex="1" parent="1">
          <mxGeometry x="471.13" y="361.25" width="40" height="40" as="geometry" />
        </mxCell>
        <mxCell id="MC8-AhKKOKp2TsqZbp03-343" value="" style="shape=cube;whiteSpace=wrap;html=1;boundedLbl=1;backgroundOutline=1;darkOpacity=0.05;darkOpacity2=0.1;size=20;rotation=90;fillColor=#1ba1e2;strokeColor=#006EAF;fontColor=#ffffff;" vertex="1" parent="1">
          <mxGeometry x="491.13" y="361.25" width="40" height="40" as="geometry" />
        </mxCell>
        <mxCell id="MC8-AhKKOKp2TsqZbp03-344" value="" style="shape=cube;whiteSpace=wrap;html=1;boundedLbl=1;backgroundOutline=1;darkOpacity=0.05;darkOpacity2=0.1;size=20;rotation=90;fillColor=#1ba1e2;strokeColor=#006EAF;fontColor=#ffffff;" vertex="1" parent="1">
          <mxGeometry x="511.13" y="361.25" width="40" height="40" as="geometry" />
        </mxCell>
        <mxCell id="MC8-AhKKOKp2TsqZbp03-345" value="" style="shape=cube;whiteSpace=wrap;html=1;boundedLbl=1;backgroundOutline=1;darkOpacity=0.05;darkOpacity2=0.1;size=20;rotation=90;fillColor=#1ba1e2;strokeColor=#006EAF;fontColor=#ffffff;" vertex="1" parent="1">
          <mxGeometry x="531.13" y="361.25" width="40" height="40" as="geometry" />
        </mxCell>
        <mxCell id="MC8-AhKKOKp2TsqZbp03-346" value="T1 Modal Feature" style="text;html=1;align=center;verticalAlign=middle;resizable=0;points=[];autosize=1;strokeColor=none;fillColor=none;fontSize=16;fontFamily=Times New Roman;fontColor=#000000;fontStyle=1" vertex="1" parent="1">
          <mxGeometry x="240.5" y="485" width="140" height="20" as="geometry" />
        </mxCell>
        <mxCell id="MC8-AhKKOKp2TsqZbp03-347" value="Flair Modal Feature" style="text;html=1;align=center;verticalAlign=middle;resizable=0;points=[];autosize=1;strokeColor=none;fillColor=none;fontSize=16;fontFamily=Times New Roman;fontColor=#000000;fontStyle=1" vertex="1" parent="1">
          <mxGeometry x="441.5" y="485" width="150" height="20" as="geometry" />
        </mxCell>
        <mxCell id="MC8-AhKKOKp2TsqZbp03-348" value="" style="curved=1;endArrow=classic;html=1;rounded=0;fontColor=default;strokeColor=default;labelBackgroundColor=default;" edge="1" parent="1">
          <mxGeometry width="50" height="50" relative="1" as="geometry">
            <mxPoint x="295.25999999999976" y="351.25" as="sourcePoint" />
            <mxPoint x="489.2600000000002" y="351.25" as="targetPoint" />
            <Array as="points">
              <mxPoint x="329.26" y="261.25" />
              <mxPoint x="459.26" y="271.25" />
            </Array>
          </mxGeometry>
        </mxCell>
        <mxCell id="MC8-AhKKOKp2TsqZbp03-349" value="" style="curved=1;endArrow=classic;html=1;rounded=0;fontColor=default;strokeColor=default;labelBackgroundColor=default;entryX=0.313;entryY=1.047;entryDx=0;entryDy=0;entryPerimeter=0;" edge="1" parent="1" target="MC8-AhKKOKp2TsqZbp03-342">
          <mxGeometry width="50" height="50" relative="1" as="geometry">
            <mxPoint x="273.2600000000002" y="376.25" as="sourcePoint" />
            <mxPoint x="467.26" y="376.25" as="targetPoint" />
            <Array as="points">
              <mxPoint x="307.26" y="286.25" />
              <mxPoint x="437.26" y="296.25" />
            </Array>
          </mxGeometry>
        </mxCell>
        <mxCell id="MC8-AhKKOKp2TsqZbp03-350" value="" style="curved=1;endArrow=classic;html=1;rounded=0;labelBackgroundColor=default;fontColor=default;strokeColor=default;" edge="1" parent="1">
          <mxGeometry width="50" height="50" relative="1" as="geometry">
            <mxPoint x="200" y="141.25" as="sourcePoint" />
            <mxPoint x="200" y="161.25" as="targetPoint" />
            <Array as="points">
              <mxPoint x="170" y="131.25" />
            </Array>
          </mxGeometry>
        </mxCell>
        <mxCell id="MC8-AhKKOKp2TsqZbp03-351" value="" style="curved=1;endArrow=classic;html=1;rounded=0;labelBackgroundColor=default;fontColor=default;strokeColor=default;" edge="1" parent="1">
          <mxGeometry width="50" height="50" relative="1" as="geometry">
            <mxPoint x="200" y="141.25" as="sourcePoint" />
            <mxPoint x="200" y="183.24999999999955" as="targetPoint" />
            <Array as="points">
              <mxPoint x="163" y="153.25" />
            </Array>
          </mxGeometry>
        </mxCell>
        <mxCell id="MC8-AhKKOKp2TsqZbp03-352" value="" style="curved=1;endArrow=classic;html=1;rounded=0;labelBackgroundColor=default;fontColor=default;strokeColor=default;" edge="1" parent="1">
          <mxGeometry width="50" height="50" relative="1" as="geometry">
            <mxPoint x="200" y="141.25" as="sourcePoint" />
            <mxPoint x="193" y="200.24999999999955" as="targetPoint" />
            <Array as="points">
              <mxPoint x="156" y="170.25" />
            </Array>
          </mxGeometry>
        </mxCell>
        <mxCell id="MC8-AhKKOKp2TsqZbp03-353" value="" style="curved=1;endArrow=classic;html=1;rounded=0;labelBackgroundColor=default;fontColor=default;strokeColor=default;entryX=0.225;entryY=0.981;entryDx=0;entryDy=0;entryPerimeter=0;" edge="1" parent="1" target="MC8-AhKKOKp2TsqZbp03-239">
          <mxGeometry width="50" height="50" relative="1" as="geometry">
            <mxPoint x="646.9999999999995" y="102.25" as="sourcePoint" />
            <mxPoint x="666" y="92.25" as="targetPoint" />
            <Array as="points">
              <mxPoint x="647" y="92.25" />
              <mxPoint x="657" y="71.25" />
            </Array>
          </mxGeometry>
        </mxCell>
        <mxCell id="MC8-AhKKOKp2TsqZbp03-354" value="" style="curved=1;endArrow=classic;html=1;rounded=0;labelBackgroundColor=default;fontColor=default;strokeColor=default;entryX=0.225;entryY=0.981;entryDx=0;entryDy=0;entryPerimeter=0;" edge="1" parent="1">
          <mxGeometry width="50" height="50" relative="1" as="geometry">
            <mxPoint x="644" y="103.24999999999955" as="sourcePoint" />
            <mxPoint x="688.2600000000002" y="103.24999999999955" as="targetPoint" />
            <Array as="points">
              <mxPoint x="654" y="62.25" />
              <mxPoint x="679" y="73.25" />
            </Array>
          </mxGeometry>
        </mxCell>
        <mxCell id="MC8-AhKKOKp2TsqZbp03-355" value="" style="curved=1;endArrow=classic;html=1;rounded=0;labelBackgroundColor=default;fontColor=default;strokeColor=default;entryX=0.225;entryY=0.981;entryDx=0;entryDy=0;entryPerimeter=0;" edge="1" parent="1">
          <mxGeometry width="50" height="50" relative="1" as="geometry">
            <mxPoint x="650" y="103.24999999999955" as="sourcePoint" />
            <mxPoint x="704.2600000000002" y="103.24999999999955" as="targetPoint" />
            <Array as="points">
              <mxPoint x="670" y="62.25" />
              <mxPoint x="695" y="73.25" />
            </Array>
          </mxGeometry>
        </mxCell>
        <mxCell id="MC8-AhKKOKp2TsqZbp03-356" value="" style="curved=1;endArrow=classic;html=1;rounded=0;labelBackgroundColor=default;fontColor=default;strokeColor=default;" edge="1" parent="1">
          <mxGeometry width="50" height="50" relative="1" as="geometry">
            <mxPoint x="645" y="101.25" as="sourcePoint" />
            <mxPoint x="620" y="121.25" as="targetPoint" />
            <Array as="points">
              <mxPoint x="645" y="101.25" />
              <mxPoint x="595" y="51.25" />
              <mxPoint x="620" y="121.25" />
            </Array>
          </mxGeometry>
        </mxCell>
        <mxCell id="MC8-AhKKOKp2TsqZbp03-357" value="" style="curved=1;endArrow=classic;html=1;rounded=0;labelBackgroundColor=default;fontColor=default;strokeColor=default;entryX=0.225;entryY=0.981;entryDx=0;entryDy=0;entryPerimeter=0;" edge="1" parent="1">
          <mxGeometry width="50" height="50" relative="1" as="geometry">
            <mxPoint x="650" y="100.25" as="sourcePoint" />
            <mxPoint x="726.2600000000002" y="100.24999999999955" as="targetPoint" />
            <Array as="points">
              <mxPoint x="692" y="59.25" />
              <mxPoint x="717" y="70.25" />
            </Array>
          </mxGeometry>
        </mxCell>
        <mxCell id="MC8-AhKKOKp2TsqZbp03-358" value="" style="curved=1;endArrow=classic;html=1;rounded=0;labelBackgroundColor=default;fontColor=default;strokeColor=default;" edge="1" parent="1">
          <mxGeometry width="50" height="50" relative="1" as="geometry">
            <mxPoint x="648" y="101.25" as="sourcePoint" />
            <mxPoint x="648" y="121.25" as="targetPoint" />
            <Array as="points">
              <mxPoint x="623" y="51.25" />
              <mxPoint x="648" y="121.25" />
            </Array>
          </mxGeometry>
        </mxCell>
      </root>
    </mxGraphModel>
  </diagram>
</mxfile>
